# AST/ASF file generated using VICON BodyLanguage
# -----------------------------------------------
:version 1.10
:name VICON
:units
  mass 1.0
  length 0.45
  angle deg
:documentation
   .ast/.asf automatically generated from VICON data using
   VICON BodyBuilder and BodyLanguage model FoxedUp or BRILLIANT.MOD
:root
   order TX TY TZ RX RY RZ
   axis XYZ
   position 0 0 0  
   orientation 0 0 0 
:bonedata
  begin
     id 1 
     name lhipjoint
     direction 0.521452 -0.77106 0.36545 
     length 2.0933 
     axis 0 0 0  XYZ
  end
  begin
     id 2 
     name lfemur
     direction 0.34202 -0.939693 0  
     length 6.83441  
     axis 0 0 20  XYZ
    dof rx ry rz
    limits (-160.0 20.0)
           (-70.0 70.0)
           (-60.0 70.0)
  end
  begin
     id 3 
     name ltibia
     direction 0.34202 -0.939693 0   
     length 7.28749   
     axis 0 0 20   XYZ
    dof rx
    limits (-10.0 170.0)
  end
  begin
     id 4 
     name lfoot
     direction 0.100608 -0.276418 0.955757   
     length 1.52195   
     axis -90 7.62852e-016 20   XYZ
    dof rx rz
    limits (-45.0 90.0)
           (-70.0 20.0)
  end
  begin
     id 5 
     name ltoes
     direction 1.53558e-011 -4.21907e-011 1   
     length 0.770459   
     axis -90 7.62852e-016 20   XYZ
    dof rx
    limits (-90.0 20.0)
  end
  begin
     id 6 
     name rhipjoint
     direction -0.488071 -0.788702 0.373812   
     length 2.04648  
     axis 0 0 0  XYZ 
  end
  begin
     id 7 
     name rfemur
     direction -0.34202 -0.939693 0   
     length 6.92583   
     axis 0 0 -20   XYZ
    dof rx ry rz
    limits (-160.0 20.0)
           (-70.0 70.0)
           (-70.0 60.0)
  end
  begin
     id 8 
     name rtibia
     direction -0.34202 -0.939693 0   
     length 7.41043   
     axis 0 0 -20   XYZ
    dof rx
    limits (-10.0 170.0)
 end
 begin
     id 9 
     name rfoot
     direction -0.0784433 -0.215521 0.973343   
     length 1.67708  
     axis -90 -7.62852e-016 -20   XYZ
    dof rx rz
    limits (-45.0 90.0)
           (-20.0 70.0)
  end
  begin
     id 10 
     name rtoes
     direction -1.53551e-011 -4.21842e-011 1   
     length 0.849787   
     axis -90 -7.62852e-016 -20   XYZ
    dof rx
    limits (-90.0 20.0)
  end
  begin
     id 11 
     name lowerback
     direction -0.0122332 0.997575 -0.0685192   
     length 1.98724   
     axis 0 0 0   XYZ
    dof rx ry rz
    limits (-20.0 45.0)
           (-30.0 30.0)
           (-30.0 30.0)
  end
  begin
     id 12 
     name upperback
     direction 0.0182347 0.999724 -0.0148421   
     length 1.99029   
     axis 0 0 0   XYZ
    dof rx ry rz
    limits (-20.0 45.0)
           (-30.0 30.0)
           (-30.0 30.0)
  end
  begin
     id 13 
     name thorax
     direction 0.0242908 0.99956 0.0170184   
     length 1.99573   
     axis 0 0 0   XYZ
    dof rx ry rz
    limits (-20.0 45.0)
           (-30.0 30.0)
           (-30.0 30.0)
  end
  begin
     id 14 
     name lowerneck
     direction 0.0654488 0.985533 0.156338   
     length 1.4285   
     axis 0 0 0   XYZ
    dof rx ry rz
    limits (-20.0 45.0)
           (-30.0 30.0)
           (-30.0 30.0)
  end
  begin
     id 15 
     name upperneck
     direction -0.02953 0.998556 -0.0448842   
     length 1.44709   
     axis 0 0 0   XYZ
    dof rx ry rz
    limits (-20.0 45.0)
           (-30.0 30.0)
           (-30.0 30.0)
  end
  begin
     id 16
     name head
     direction -0.0155588 0.999386 -0.0314063  
     length 1.44689  
     axis 0 0 0   XYZ
    dof rx ry rz
    limits (-20.0 45.0)
           (-30.0 30.0)
           (-30.0 30.0)
  end
  begin
     id 17 
     name lclavicle
     direction 0.968229 0.236071 -0.0824755  
     length 3.60593  
     axis 0 0 0   XYZ
    dof ry rz
    limits (-20.0 10.0)
           (0.0 20.0)
  end
  begin
     id 18 
     name lhumerus
     direction 1 -4.48968e-011 7.8138e-029   
     length 5.06035   
     axis 180 -30 -90   XYZ
    dof rx ry rz
    limits (-60.0 90.0)
           (-90.0 90.0)
           (-90.0 90.0)
  end
  begin
     id 19
     name lradius
     direction 1 -4.48967e-011 9.02887e-028   
     length 3.1478   
     axis 180 -30 -90   XYZ
    dof rx
    limits (-10.0 170.0)
  end
  begin
     id 20
     name lwrist
     direction 1 -4.48961e-011 7.20928e-028   
     length 1.5739   
     axis -5.52449e-016 90 90   XYZ
    dof ry
    limits (-180.0 0.0)
 end
  begin
     id 21 
     name lhand
     direction 1 -4.48972e-011 1.44186e-027   
     length 0.606747   
     axis -9.20027e-016 90 90   XYZ
    dof rx rz
    limits (-90.0 90.0)
           (-45.0 45.0)
  end
  begin
     id 22 
     name lfingers
     direction 1 -4.48943e-011 2.88371e-027   
     length 0.489175   
     axis -1.84005e-015 90 90   XYZ
    dof rx
    limits (0.0 90.0)
  end
  begin
     id 23
     name lthumb
     direction 0.707107 -6.34917e-011 0.707107   
     length 0.70236   
     axis -90 45 2.85299e-015   XYZ
    dof rx rz
    limits (-45.0 45.0)
           (-45.0 45.0)
  end
  begin
     id 24 
     name rclavicle
     direction -0.978165 0.207816 0.0022268   
     length 3.35425  
     axis 0 0 0   XYZ 
    dof ry rz
    limits (-10.0 20.0)
           (-20.0 0.0)
  end
  begin
     id 25 
     name rhumerus
     direction -1 -4.48964e-011 -4.02159e-027  
     length 5.12273   
     axis 180 30 90   XYZ
    dof rx ry rz
    limits (-90.0 60.0)
           (-90.0 90.0)
           (-90.0 90.0)
  end
  begin
     id 26 
     name rradius
     direction -1 -4.48966e-011 1.62746e-027   
     length 3.422   
     axis 180 30 90   XYZ
    dof rx
    limits (-10.0 170.0)
  end
  begin
     id 27 
     name rwrist
     direction -1 -4.4896e-011 7.20928e-028   
     length 1.711   
     axis -5.52449e-016 -90 -90   XYZ
    dof ry
    limits (-180.0 0.0)
  end
  begin
     id 28
     name rhand
     direction -1 -4.48979e-011 1.44186e-027   
     length 0.704599   
     axis -9.20027e-016 -90 -90   XYZ
    dof rx rz
    limits (-90.0 90.0)
           (-45.0 45.0)
  end
  begin
     id 29
     name rfingers
     direction -1 -4.48962e-011 2.88371e-027   
     length 0.568066   
     axis -1.84005e-015 -90 -90   XYZ
    dof rx
    limits (0.0 90.0)
  end
  begin
     id 30
     name rthumb
     direction -0.707107 -6.34949e-011 0.707107   
     length 0.815633   
     axis -90 -45 -2.85299e-015   XYZ
    dof rx rz
    limits (-45.0 45.0)
           (-45.0 45.0)
  end
:hierarchy
  begin
    root lhipjoint rhipjoint lowerback
    lhipjoint lfemur
    lfemur ltibia
    ltibia lfoot
    lfoot ltoes
    rhipjoint rfemur
    rfemur rtibia
    rtibia rfoot
    rfoot rtoes
    lowerback upperback
    upperback thorax
    thorax lowerneck lclavicle rclavicle
    lowerneck upperneck
    upperneck head
    lclavicle lhumerus
    lhumerus lradius
    lradius lwrist
    lwrist lhand lthumb
    lhand lfingers
    rclavicle rhumerus
    rhumerus rradius
    rradius rwrist
    rwrist rhand rthumb
    rhand rfingers
  end

#!OML:ASF E:\id_vita\Project 1\Capture day 1\Session 1\Male1.ASF
:FULLY-SPECIFIED
:DEGREES
284
root -4.57261 16.2467 0.386572 543.512 -77.0101 -543.575
lowerback -3.03411 -3.996 -4.51038
upperback -0.157273 -5.17616 -0.0321781
thorax 1.93056 -2.62532 2.22411
lowerneck -0.142757 -8.56972 -3.62651
upperneck -10.1867 -11.9614 -0.659215
head -3.06759 -5.89629 0.693257
rclavicle 1.35422e-014 8.94531e-015
rhumerus -31.3521 -9.29215 -84.5594
rradius 24.3242
rwrist 9.6394
rhand -19.2507 31.8501
rfingers 7.12502
rthumb 7.06312 1.98794
lclavicle 1.35422e-014 8.94531e-015
lhumerus -28.7546 31.0189 68.6451
lradius 13.8926
lwrist -20.0398
lhand -10.9676 46.4376
lfingers 7.12502
lthumb 15.0518 75.8704
rfemur -7.33997 3.98295 18.6213
rtibia 62.1761
rfoot 4.71276 10.995
rtoes 15.2962
lfemur -11.816 3.23321 -23.2528
ltibia 27.9007
lfoot -15.0641 -4.09966
ltoes 42.1032
285
root -4.66403 16.2375 0.379859 536.576 -76.8419 -536.995
lowerback -2.87133 -3.9214 -3.06326
upperback 0.479578 -5.12357 0.23414
thorax 2.38866 -2.5987 1.68596
lowerneck 1.16666 -8.41331 -4.33979
upperneck -12.1582 -11.7914 0.990302
head -3.85162 -5.8158 1.47664
rclavicle 8.80865e-015 -5.1684e-015
rhumerus -30.871 -10.0275 -84.6243
rradius 23.9291
rwrist 9.79276
rhand -19.2977 31.7331
rfingers 7.12502
rthumb 7.01776 1.86946
lclavicle 8.80865e-015 -5.1684e-015
lhumerus -26.3304 28.9735 70.2292
lradius 14.4501
lwrist -17.8843
lhand -10.6916 46.856
lfingers 7.12502
lthumb 15.3176 76.2687
rfemur -7.88829 4.39345 20.8223
rtibia 62.6461
rfoot 2.48937 9.908
rtoes 12.9932
lfemur -10.9903 3.41117 -21.5235
ltibia 28.0063
lfoot -15.4047 -4.13821
ltoes 41.5424
286
root -4.80339 16.2303 0.377657 541.54 -77.0254 -542.064
lowerback -2.74078 -4.11218 -4.24672
upperback 0.111052 -5.34677 -0.0175191
thorax 2.03297 -2.71336 2.09358
lowerneck 0.353139 -8.45376 -3.75648
upperneck -10.7341 -11.8244 -0.248594
head -3.31443 -5.82598 0.887473
rclavicle 2.51525e-014 -2.5842e-015
rhumerus -31.8809 -9.70461 -84.3611
rradius 23.7915
rwrist 9.36382
rhand -19.2874 31.6948
rfingers 7.12502
rthumb 7.02772 1.83142
lclavicle 2.51525e-014 -2.5842e-015
lhumerus -25.9112 26.8418 71.0403
lradius 15.2242
lwrist -15.6841
lhand -10.8058 46.8214
lfingers 7.12502
lthumb 15.2075 76.2425
rfemur -8.69049 3.96185 19.5164
rtibia 63.0795
rfoot -0.369469 9.17388
rtoes 10.3799
lfemur -10.4455 3.29258 -22.9418
ltibia 28.1132
lfoot -16.0281 -4.16507
ltoes 42.1368
287
root -4.87198 16.2178 0.384355 540.875 -77.3841 -541.133
lowerback -2.7253 -4.27512 -4.09667
upperback 0.257919 -5.56684 0.0501458
thorax 2.18355 -2.8263 2.0611
lowerneck -0.0246266 -8.52631 -3.90494
upperneck -10.8321 -11.9062 -0.0276657
head -3.25329 -5.87685 0.963188
rclavicle 9.8327e-014 1.98785e-015
rhumerus -31.5423 -10.1022 -84.2753
rradius 23.3727
rwrist 9.40288
rhand -19.3045 31.5964
rfingers 7.12502
rthumb 7.01118 1.73248
lclavicle 9.8327e-014 1.98785e-015
lhumerus -24.1974 25.6687 71.999
lradius 15.7843
lwrist -14.3354
lhand -11.5772 46.2545
lfingers 7.12502
lthumb 14.4644 75.7304
rfemur -10.149 3.54534 19.8878
rtibia 63.352
rfoot -2.32751 7.99061
rtoes 9.22737
lfemur -10.5908 3.14692 -22.7975
ltibia 28.3582
lfoot -16.2524 -4.35816
ltoes 43.1395
288
root -4.96548 16.1998 0.39069 542.776 -77.5505 -542.886
lowerback -2.80407 -4.36441 -4.44333
upperback 0.280485 -5.66898 -0.0352164
thorax 2.28319 -2.88302 2.15001
lowerneck -0.352405 -8.61828 -4.02248
upperneck -10.8008 -12.0233 -0.00503319
head -3.17148 -5.93876 0.970224
rclavicle 9.67957e-014 6.75868e-015
rhumerus -31.5228 -10.6324 -83.9719
rradius 22.9537
rwrist 9.72985
rhand -19.3548 31.4752
rfingers 7.12502
rthumb 6.96265 1.60972
lclavicle 9.67957e-014 6.75868e-015
lhumerus -22.9421 24.3443 72.8346
lradius 16.5528
lwrist -13.0369
lhand -11.9579 46.1063
lfingers 7.12502
lthumb 14.0975 75.6081
rfemur -11.4233 3.22152 19.5028
rtibia 63.4892
rfoot -3.72909 6.82557
rtoes 10.3649
lfemur -10.4319 3.05285 -23.3462
ltibia 28.3646
lfoot -16.6466 -4.40711
ltoes 43.0643
289
root -5.07787 16.1803 0.397033 545.782 -77.6628 -545.779
lowerback -3.00808 -4.47832 -4.93578
upperback 0.239018 -5.79159 -0.234252
thorax 2.39199 -2.95077 2.19325
lowerneck 0.579751 -8.45952 -4.0667
upperneck -11.6469 -11.8742 0.274277
head -3.62219 -5.8531 1.15161
rclavicle 4.61149e-014 -1.03368e-014
rhumerus -31.7113 -10.9338 -83.7549
rradius 22.5281
rwrist 9.86091
rhand -19.4579 31.5856
rfingers 7.12502
rthumb 6.86311 1.71684
lclavicle 4.61149e-014 -1.03368e-014
lhumerus -21.967 22.2836 73.5504
lradius 17.4575
lwrist -11.036
lhand -11.7711 46.4397
lfingers 7.12502
lthumb 14.2776 75.9289
rfemur -12.5121 2.85575 18.7959
rtibia 63.4584
rfoot -4.97171 5.8115
rtoes 11.6743
lfemur -10.2639 2.94244 -24.1968
ltibia 28.6116
lfoot -17.2639 -4.43824
ltoes 42.6565
290
root -5.18107 16.1618 0.401305 547.154 -77.8474 -547.02
lowerback -3.1868 -4.60347 -5.08852
upperback 0.302027 -5.93911 -0.342857
thorax 2.57269 -3.03025 2.13668
lowerneck 0.493145 -8.53795 -4.37758
upperneck -11.6976 -11.9648 0.55897
head -3.58339 -5.89962 1.28883
rclavicle -1.76207e-013 -1.88845e-014
rhumerus -31.8057 -10.9081 -83.7176
rradius 22.2738
rwrist 9.54807
rhand -19.4454 31.594
rfingers 7.12502
rthumb 6.87525 1.72568
lclavicle -1.76207e-013 -1.88845e-014
lhumerus -20.9523 20.5278 74.1243
lradius 18.3128
lwrist -9.23786
lhand -12.0134 46.3233
lfingers 7.12502
lthumb 14.0441 75.8288
rfemur -13.5937 2.41621 18.5622
rtibia 63.3026
rfoot -6.30666 4.8524
rtoes 12.4748
lfemur -10.0855 2.83168 -24.6171
ltibia 28.7623
lfoot -17.5663 -4.53441
ltoes 42.7
291
root -5.27713 16.1458 0.404051 546.762 -78.0936 -546.563
lowerback -3.1236 -4.71516 -4.95863
upperback 0.365118 -6.09528 -0.289659
thorax 2.60687 -3.10813 2.1109
lowerneck 0.390039 -8.41458 -4.20304
upperneck -11.5541 -11.8117 0.263161
head -3.54774 -5.82206 1.15311
rclavicle 3.66991e-014 9.74045e-015
rhumerus -31.9565 -11.0584 -83.5011
rradius 22.1615
rwrist 9.51897
rhand -19.348 31.3755
rfingers 7.12502
rthumb 6.96923 1.51021
lclavicle 3.66991e-014 9.74045e-015
lhumerus -20.0637 19.6192 74.5965
lradius 19.1376
lwrist -8.36367
lhand -12.4318 46.0063
lfingers 7.12502
lthumb 13.6409 75.5393
rfemur -14.6048 1.96367 18.7941
rtibia 62.9951
rfoot -7.6154 3.83216
rtoes 13.5897
lfemur -9.83887 2.70782 -24.6031
ltibia 28.9301
lfoot -17.7822 -4.72213
ltoes 42.9088
292
root -5.37683 16.1299 0.406393 548.319 -78.1089 -548.028
lowerback -3.05298 -4.80504 -5.29367
upperback 0.275617 -6.20968 -0.319728
thorax 2.51608 -3.16656 2.26579
lowerneck 1.25633 -8.23579 -4.70099
upperneck -12.4302 -11.6041 0.994289
head -3.9505 -5.71015 1.54894
rclavicle -4.02865e-014 -2.08724e-014
rhumerus -32.2613 -11.2276 -83.2329
rradius 22.0258
rwrist 9.65914
rhand -19.4391 31.2238
rfingers 7.12502
rthumb 6.88133 1.35561
lclavicle -4.02865e-014 -2.08724e-014
lhumerus -19.4375 19.0928 74.8723
lradius 20.0576
lwrist -7.68029
lhand -12.5769 46.0868
lfingers 7.12502
lthumb 13.501 75.6292
rfemur -15.7531 1.70955 18.6139
rtibia 62.5936
rfoot -9.01757 2.89812
rtoes 13.4
lfemur -9.70034 2.67095 -25.0106
ltibia 29.1945
lfoot -18.3149 -4.85799
ltoes 42.6518
